<svg id="Layer_1" data-name="Layer 1" xmlns="http://www.w3.org/2000/svg" viewBox="0 0 65.57 65.84"><defs><style>.cls-1{fill:#4b6fb4;}</style></defs><title>logo1</title><polygon class="cls-1" points="1.76 12.77 4.39 9.9 7.26 7.26 9.97 4.46 12.77 1.74 12.21 0.54 8.54 0.41 4.86 0.3 1.19 0.44 0.49 1.18 0.43 4.85 0.45 8.53 0.36 12.2 1.76 12.77"/><polygon class="cls-1" points="63.99 52.96 61.31 55.79 58.49 58.48 55.81 61.31 53 64.02 53.52 65.35 57.19 65.4 60.86 65.17 64.54 65.24 65.3 64.53 65.19 60.86 65.29 57.19 65.25 53.51 63.99 52.96"/><polygon class="cls-1" points="36.41 24.45 33.91 21.28 30.94 18.65 27.63 18.81 24.26 18.69 20.94 19.5 20.49 20.34 24.08 24.37 23.87 24.94 21.54 27.64 19.63 30.75 16.64 32.79 14.2 35.37 11.1 38.52 8.11 41.78 6.66 41.06 6.74 36.75 6.83 32.43 6.17 28.12 7.13 27.86 9.37 24.62 12.64 22.4 15.06 19.33 17.84 16.63 20.67 13.24 24.28 10.65 25.73 8.11 27.87 7.13 28.13 6.52 32.44 6.88 36.75 6.94 41.07 6.8 41.27 7.59 39.03 11.06 36.26 13.99 35.84 14.78 38.65 17.08 40.92 19.94 42.2 19.93 44.59 17.14 47.09 14.47 49.73 11.94 52.37 9.41 54.65 6.51 57.61 4.29 60.49 2 59.68 0.89 55.9 0.44 52.13 0.69 48.35 0.76 44.58 0.94 40.81 0.89 37.03 0.35 33.26 0 29.48 0.1 25.7 0.85 21.92 0.84 21.38 0.64 19.08 3.52 15.82 5.44 13.8 8.61 10.98 10.97 8.65 13.81 5.87 16.22 3.45 18.99 0.75 21.48 0.34 21.91 0.22 25.69 0.09 29.46 0.41 33.24 0 37.01 0.56 40.79 0.22 44.56 0.28 48.34 0.46 52.11 0.56 55.89 0.11 59.67 2.05 60.54 4.01 57.12 7.44 55.19 9.97 52.35 12.1 49.11 15.31 46.95 18.01 44.29 20.42 41.32 23.21 38.74 25.98 36.14 28.79 33.57 31.21 30.62 33.98 28.01 37.03 25.68 36.41 24.45"/><polygon class="cls-1" points="64.22 5.72 61.04 7.72 58.52 10.37 56.5 13.52 53.52 15.71 51.14 18.51 48.17 20.72 45.64 23.37 45.95 24.62 48.53 27.16 50.77 30.05 51.8 29.54 55 27.02 57.42 23.74 59.17 24.65 58.55 28.96 59.4 33.28 59.35 37.59 58.7 37.96 55.08 41.58 54.51 41.42 51.8 39.06 49.45 36.34 46.59 34.13 43.93 31.72 41.85 28.72 40.3 28.96 37.64 31.67 35.12 34.51 32.42 37.18 30.04 40.17 26.58 42.08 24.66 45.53 21.29 47.53 18.98 50.59 16.65 53.63 13.32 55.67 10.83 58.56 8.09 61.2 5.86 64.35 6.04 65.36 9.77 65.5 13.49 65.25 17.22 65.73 20.94 65.83 24.67 65.12 28.39 64.95 32.12 65.84 35.85 65.27 39.58 65.77 43.3 64.91 44.58 64.45 44.26 59.87 44.06 55.28 42.52 55.16 38.17 58.9 37.6 59.58 33.29 58.81 28.97 58.96 24.66 59.51 23.7 57.37 26.57 54.81 29.13 51.94 31.98 49.36 35.02 46.97 37.28 43.79 40.71 41.78 41.46 41.53 44.02 44.03 46.17 46.95 49.14 49.05 51.8 51.45 53.99 54.34 55.02 53.93 57.3 51.3 59.79 48.88 62.58 46.76 65.39 44.65 65.12 43.8 65.35 40.02 64.99 36.25 65.28 32.47 65.56 28.7 65.13 24.92 64.79 21.15 65.32 17.38 64.88 13.6 65.58 9.82 64.89 6.04 64.22 5.72"/></svg>